<svg xmlns="http://www.w3.org/2000/svg" xmlns:xlink="http://www.w3.org/1999/xlink" width="1920" zoomAndPan="magnify" viewBox="0 0 1440 809.999993" height="1080" preserveAspectRatio="xMidYMid meet" version="1.0"><defs><filter x="0%" y="0%" width="100%" height="100%" id="ad6b856ca6"><feColorMatrix values="0 0 0 0 1 0 0 0 0 1 0 0 0 0 1 0 0 0 1 0" color-interpolation-filters="sRGB"/></filter><clipPath id="ef49745ca1"><path d="M 259.207031 33.769531 L 540 33.769531 L 540 171 L 259.207031 171 Z M 259.207031 33.769531 " clip-rule="nonzero"/></clipPath><mask id="171343de19"><g filter="url(#ad6b856ca6)"><rect x="-144" width="1728" fill="#000000" y="-80.999999" height="971.999992" fill-opacity="0.15"/></g></mask><clipPath id="af56ec22c8"><path d="M 0.207031 0.769531 L 276 0.769531 L 276 133 L 0.207031 133 Z M 0.207031 0.769531 " clip-rule="nonzero"/></clipPath><clipPath id="50d83c64ca"><path d="M 0.207031 0.769531 L 281 0.769531 L 281 137.398438 L 0.207031 137.398438 Z M 0.207031 0.769531 " clip-rule="nonzero"/></clipPath><clipPath id="78d854e3fd"><rect x="0" width="281" y="0" height="138"/></clipPath><clipPath id="3f9f0fafa1"><path d="M 282.878906 68 L 1157.054688 68 L 1157.054688 560 L 282.878906 560 Z M 282.878906 68 " clip-rule="nonzero"/></clipPath></defs><g clip-path="url(#ef49745ca1)"><g mask="url(#171343de19)"><g transform="matrix(1, 0, 0, 1, 259, 33)"><g clip-path="url(#78d854e3fd)"><g clip-path="url(#af56ec22c8)"><path fill="#bfa18f" d="M 139.140625 -834.054688 C 139.140625 -834.054688 275.886719 -659.027344 275.886719 -659.027344 C 275.886719 -659.027344 -736.75 132.132812 -736.75 132.132812 C -736.75 132.132812 -873.496094 -42.894531 -873.496094 -42.894531 C -873.496094 -42.894531 139.140625 -834.054688 139.140625 -834.054688 Z M 139.140625 -834.054688 " fill-opacity="1" fill-rule="nonzero"/></g><g clip-path="url(#50d83c64ca)"><path stroke-linecap="butt" transform="matrix(0.279737, -0.218554, 0.218554, 0.279737, -298.805597, -350.960414)" fill="none" stroke-linejoin="miter" d="M 1809.987661 -312.844513 C 1809.987661 -312.844513 1809.987136 312.841473 1809.987136 312.841473 C 1809.987136 312.841473 -1809.981808 312.845346 -1809.981808 312.845346 C -1809.981808 312.845346 -1809.981282 -312.840639 -1809.981282 -312.840639 C -1809.981282 -312.840639 1809.987661 -312.844513 1809.987661 -312.844513 Z M 1809.987661 -312.844513 " stroke="#bfa18f" stroke-width="5" stroke-opacity="1" stroke-miterlimit="4"/></g></g></g></g></g><path fill="#bf926b" d="M 863.226562 763.652344 C 863.226562 763.652344 568.816406 763.652344 568.816406 763.652344 C 568.816406 763.652344 568.816406 763.632812 568.816406 763.632812 C 568.816406 759.097656 569.707031 754.652344 571.378906 750.511719 C 572.710938 747.207031 574.539062 744.097656 576.816406 741.285156 C 586.503906 729.324219 594.1875 716.609375 599.566406 703.035156 C 608.53125 680.429688 611.113281 655.4375 605.941406 627.550781 C 605.941406 627.550781 823.355469 627.550781 823.355469 627.550781 C 817.773438 653.664062 820.871094 678.789062 831.640625 703.035156 C 837.414062 716.035156 845.394531 728.78125 855.425781 741.296875 C 857.671875 744.097656 859.457031 747.207031 860.75 750.511719 C 860.917969 750.9375 861.082031 751.371094 861.230469 751.804688 C 862.546875 755.589844 863.226562 759.589844 863.226562 763.652344 Z M 863.226562 763.652344 " fill-opacity="1" fill-rule="nonzero"/><path fill="#401201" d="M 860.203125 749.875 C 860.203125 749.875 570.832031 749.875 570.832031 749.875 C 572.164062 746.574219 573.992188 743.460938 576.269531 740.652344 C 585.953125 728.6875 593.640625 715.972656 599.019531 702.402344 C 599.019531 702.402344 831.09375 702.402344 831.09375 702.402344 C 836.867188 715.398438 844.847656 728.144531 854.878906 740.660156 C 857.125 743.460938 858.910156 746.574219 860.203125 749.875 Z M 860.203125 749.875 " fill-opacity="1" fill-rule="nonzero"/><path fill="#bfa18f" d="M 716.21875 26.335938 C 712.820312 26.335938 710.066406 29.085938 710.066406 32.488281 C 710.066406 35.882812 712.820312 38.636719 716.21875 38.636719 C 719.617188 38.636719 722.367188 35.882812 722.367188 32.488281 C 722.367188 29.085938 719.617188 26.335938 716.21875 26.335938 Z M 716.21875 26.335938 " fill-opacity="1" fill-rule="nonzero"/><path fill="#401201" d="M 1157.476562 19.226562 C 1157.476562 19.226562 274.957031 19.226562 274.957031 19.226562 C 258.296875 19.226562 244.789062 32.066406 244.789062 47.90625 C 244.789062 47.90625 244.789062 613.667969 244.789062 613.667969 C 244.789062 630.4375 258.378906 644.03125 275.148438 644.03125 C 275.148438 644.03125 1157.285156 644.03125 1157.285156 644.03125 C 1174.054688 644.03125 1187.648438 630.4375 1187.648438 613.667969 C 1187.648438 613.667969 1187.648438 47.90625 1187.648438 47.90625 C 1187.648438 32.066406 1174.144531 19.226562 1157.476562 19.226562 Z M 715.417969 26.386719 C 719.4375 25.878906 722.820312 29.257812 722.316406 33.285156 C 721.972656 36.027344 719.757812 38.242188 717.015625 38.585938 C 712.988281 39.089844 709.609375 35.707031 710.117188 31.6875 C 710.464844 28.945312 712.679688 26.734375 715.417969 26.386719 Z M 267.808594 46.597656 C 267.808594 46.597656 1164.628906 46.597656 1164.628906 46.597656 C 1164.628906 46.597656 1164.628906 551.058594 1164.628906 551.058594 C 1164.628906 551.058594 267.808594 551.058594 267.808594 551.058594 C 267.808594 551.058594 267.808594 46.597656 267.808594 46.597656 Z M 267.808594 46.597656 " fill-opacity="1" fill-rule="nonzero"/><path fill="#bf926b" d="M 722.371094 32.484375 C 722.371094 35.882812 719.617188 38.636719 716.21875 38.636719 C 712.824219 38.636719 710.070312 35.882812 710.070312 32.484375 C 710.070312 29.089844 712.824219 26.335938 716.21875 26.335938 C 719.617188 26.335938 722.371094 29.089844 722.371094 32.484375 Z M 722.371094 32.484375 " fill-opacity="1" fill-rule="nonzero"/><g clip-path="url(#3f9f0fafa1)"><path fill="#bfa18f" d="M 615.796875 70.066406 C 626.605469 67.648438 637.699219 68.785156 648.652344 68.644531 C 666.003906 69.355469 683.496094 68.074219 700.707031 71.0625 C 712.511719 73.050781 724.316406 74.902344 736.265625 76.039062 C 761.296875 77.460938 786.613281 81.300781 810.078125 90.546875 C 815.625 92.535156 812.496094 99.933594 815.484375 103.914062 C 818.753906 109.605469 816.335938 115.863281 815.34375 121.835938 C 816.054688 124.964844 817.332031 127.953125 818.042969 131.082031 C 817.757812 134.777344 815.625 138.332031 815.910156 142.175781 C 820.320312 152.128906 828.140625 159.953125 835.824219 167.492188 C 848.339844 181.144531 849.902344 200.203125 853.175781 217.414062 C 854.3125 225.804688 863.984375 227.226562 870.527344 229.929688 C 877.921875 233.058594 887.167969 234.480469 891.574219 242.015625 C 907.648438 266.480469 916.464844 294.785156 930.972656 320.101562 C 940.644531 337.308594 948.183594 355.65625 957.851562 372.722656 C 961.265625 365.042969 967.242188 359.070312 975.347656 356.511719 C 974.351562 348.546875 979.328125 340.582031 987.292969 339.015625 C 995.96875 337.023438 1003.507812 332.332031 1010.761719 327.210938 C 1013.320312 324.507812 1014.316406 320.8125 1016.59375 317.964844 C 1024.132812 315.832031 1032.097656 316.6875 1039.777344 315.832031 C 1049.304688 314.554688 1058.976562 314.269531 1068.648438 315.40625 C 1066.230469 317.253906 1063.8125 319.246094 1061.253906 320.8125 C 1066.800781 322.945312 1073.625 328.066406 1079.03125 323.085938 C 1080.738281 326.925781 1082.445312 330.910156 1085.003906 334.324219 C 1088.988281 335.886719 1095.8125 334.179688 1097.378906 339.300781 C 1099.652344 346.839844 1103.066406 354.519531 1101.785156 362.484375 C 1101.074219 365.753906 1103.492188 368.597656 1104.914062 371.300781 C 1112.167969 383.390625 1119.421875 395.90625 1122.410156 409.988281 C 1124.542969 419.945312 1129.378906 429.1875 1132.648438 438.71875 C 1138.339844 455.5 1143.316406 472.566406 1146.589844 490.0625 C 1149.859375 507.414062 1156.117188 524.195312 1157.113281 541.972656 C 1143.886719 544.109375 1130.375 543.113281 1117.289062 541.121094 C 1129.664062 539.128906 1142.320312 538.417969 1154.835938 538.417969 C 1151.992188 530.738281 1151.566406 521.492188 1144.597656 516.230469 C 1141.894531 512.675781 1137.203125 513.101562 1133.21875 513.101562 C 1121.839844 513.246094 1110.460938 512.390625 1099.085938 511.394531 C 1114.730469 509.546875 1130.660156 510.398438 1145.878906 506.132812 C 1145.449219 496.605469 1142.605469 487.5 1138.765625 478.824219 C 1133.21875 477.828125 1127.671875 476.835938 1122.125 476.265625 C 1122.550781 482.382812 1123.261719 488.496094 1123.121094 494.753906 C 1118.425781 483.660156 1118.285156 471.570312 1114.871094 460.195312 C 1110.035156 444.832031 1106.054688 427.765625 1092.828125 417.242188 C 1092.828125 414.398438 1092.828125 411.550781 1092.828125 408.566406 C 1089.839844 406.574219 1086.851562 404.726562 1084.007812 402.589844 C 1086.996094 403.304688 1090.835938 403.160156 1092.828125 406.003906 C 1095.386719 409.417969 1095.386719 414.113281 1098.375 417.242188 C 1113.449219 432.460938 1118.996094 454.503906 1121.699219 475.128906 C 1127.105469 475.269531 1132.507812 475.269531 1137.914062 475.410156 C 1134.785156 463.179688 1133.363281 450.523438 1128.808594 438.71875 C 1125.398438 429.613281 1122.125 420.65625 1118.144531 411.835938 C 1116.292969 395.480469 1105.484375 382.253906 1099.511719 367.320312 C 1097.234375 363.050781 1099.9375 358.074219 1098.515625 353.664062 C 1097.378906 348.972656 1096.382812 344.136719 1096.097656 339.300781 C 1088.703125 339.160156 1082.730469 335.316406 1077.183594 330.765625 C 1070.78125 333.46875 1074.195312 341.007812 1078.605469 343.851562 C 1076.753906 345.558594 1074.765625 347.265625 1073.058594 349.113281 C 1080.027344 350.535156 1086.996094 351.246094 1093.964844 352.101562 C 1085.574219 352.242188 1077.324219 352.953125 1068.933594 353.238281 C 1068.222656 354.660156 1066.800781 357.648438 1065.945312 359.070312 C 1068.222656 360.351562 1070.496094 361.628906 1072.914062 362.769531 C 1070.640625 363.480469 1068.507812 364.191406 1066.230469 364.902344 C 1068.933594 379.410156 1067.796875 394.058594 1068.507812 408.566406 C 1068.222656 415.675781 1076.328125 419.800781 1075.617188 427.054688 C 1075.046875 433.882812 1068.078125 438.574219 1068.648438 445.6875 C 1069.074219 455.074219 1069.21875 464.460938 1068.363281 473.847656 C 1077.609375 474.984375 1086.851562 476.121094 1095.957031 477.546875 C 1086.425781 478.398438 1077.039062 477.117188 1067.511719 478.257812 C 1059.6875 487.359375 1063.8125 500.726562 1065.519531 511.394531 C 1068.789062 511.679688 1072.0625 511.820312 1075.332031 512.25 C 1070.355469 513.957031 1063.953125 514.523438 1061.535156 519.929688 C 1058.550781 526.753906 1062.105469 534.863281 1068.078125 538.84375 C 1068.078125 534.152344 1067.9375 529.316406 1068.222656 524.621094 C 1083.867188 523.910156 1101.074219 525.617188 1113.875 535.433594 C 1108.613281 537.847656 1103.492188 541.832031 1097.378906 541.546875 C 1066.371094 542.828125 1035.226562 541.832031 1004.078125 542.257812 C 1000.378906 528.460938 996.113281 514.667969 988.148438 502.863281 C 986.582031 500.871094 985.160156 498.453125 982.886719 497.316406 C 957.851562 494.46875 932.535156 495.75 907.363281 495.609375 C 903.097656 495.890625 896.839844 495.039062 894.988281 500.015625 C 898.6875 505.847656 905.371094 508.976562 908.785156 515.09375 C 911.773438 520.070312 913.335938 526.898438 909.636719 532.019531 C 905.941406 536.710938 900.109375 538.84375 895.984375 543.113281 C 895.558594 545.671875 895.132812 548.230469 895.132812 550.792969 C 902.527344 555.628906 911.628906 554.488281 919.878906 555.769531 C 927.132812 556.90625 934.671875 556.480469 941.640625 558.757812 C 927.703125 558.757812 913.761719 559.183594 899.824219 559.042969 C 892.003906 559.609375 888.730469 551.359375 882.898438 547.804688 C 875.503906 548.941406 868.535156 552.355469 860.855469 552.640625 C 847.34375 553.210938 833.6875 553.210938 820.175781 551.21875 C 838.523438 546.242188 855.875 538.5625 874.507812 534.578125 C 877.921875 533.867188 881.476562 532.871094 884.179688 530.3125 C 874.652344 525.761719 864.125 527.609375 853.886719 527.183594 C 859.859375 524.195312 867.964844 524.765625 871.949219 518.648438 C 878.492188 510.683594 873.511719 497.597656 863.839844 495.179688 C 845.351562 490.203125 825.867188 489.351562 806.808594 489.777344 C 794.71875 489.917969 781.917969 492.90625 772.816406 501.4375 C 757.738281 514.949219 736.976562 519.21875 717.488281 521.777344 C 678.660156 523.769531 640.6875 513.671875 602.710938 507.414062 C 590.625 505.992188 578.535156 504.851562 566.445312 503.289062 C 554.355469 502.71875 542.410156 505.5625 530.605469 507.699219 C 519.226562 509.6875 509.269531 516.800781 497.605469 517.796875 C 486.511719 518.792969 475.277344 518.078125 464.183594 517.085938 C 435.027344 513.246094 405.726562 514.097656 376.429688 513.527344 C 359.21875 512.390625 340.730469 508.835938 324.515625 516.800781 C 316.550781 520.496094 313.136719 531.023438 303.75 532.160156 C 292.941406 533.15625 283.128906 525.476562 272.175781 527.039062 C 262.222656 528.320312 252.265625 526.613281 242.308594 527.183594 C 230.648438 528.320312 218.984375 532.445312 207.320312 530.027344 C 206.753906 529.457031 205.472656 528.460938 204.761719 527.894531 C 204.476562 522.347656 204.621094 516.800781 204.050781 511.253906 C 203.054688 499.734375 206.042969 488.355469 205.757812 476.835938 C 218.558594 478.113281 231.359375 479.25 244.160156 477.402344 C 276.445312 476.265625 308.730469 476.40625 341.015625 478.257812 C 356.375 478.257812 371.59375 479.535156 386.953125 478.824219 C 386.242188 477.402344 384.964844 474.417969 384.394531 472.851562 C 346.703125 466.453125 308.585938 461.046875 270.328125 463.039062 C 247.855469 463.890625 225.8125 458.628906 203.480469 457.917969 C 203.625 457.0625 204.050781 455.359375 204.191406 454.503906 C 227.519531 456.351562 251.269531 461.757812 274.59375 456.496094 C 303.609375 451.519531 331.628906 462.46875 359.929688 466.59375 C 378.136719 468.726562 396.625 469.582031 415.117188 469.011719 C 415.257812 463.890625 414.6875 458.914062 415.398438 453.792969 C 418.101562 446.539062 426.777344 445.828125 432.894531 442.984375 C 436.875 437.578125 436.589844 430.042969 441 424.777344 C 446.691406 415.820312 459.773438 414.679688 468.449219 419.941406 C 468.878906 411.835938 470.300781 403.871094 471.863281 395.90625 C 473.570312 387.089844 472.433594 377.417969 476.699219 369.167969 C 479.828125 362.769531 477.125 355.085938 480.539062 348.6875 C 483.382812 344.707031 487.367188 341.859375 491.0625 338.589844 C 497.179688 333.753906 501.875 327.070312 508.84375 323.085938 C 505.289062 319.53125 500.453125 315.832031 500.734375 310.144531 C 499.882812 290.515625 507.5625 271.742188 509.554688 252.398438 C 508.984375 244.152344 505.855469 236.328125 506.140625 228.078125 C 505.570312 217.695312 509.128906 207.742188 512.824219 198.210938 C 516.664062 189.109375 519.082031 179.296875 524.488281 171.046875 C 533.164062 157.390625 541.980469 143.878906 551.367188 130.796875 C 556.203125 123.96875 557.199219 115.007812 562.460938 108.464844 C 564.878906 105.050781 568.292969 102.066406 569.574219 97.941406 C 568.4375 94.953125 566.871094 92.253906 565.589844 89.40625 C 569.148438 87.699219 572.988281 86.421875 576.828125 85.28125 C 578.535156 82.152344 579.386719 77.746094 583.511719 76.890625 C 593.894531 73.195312 604.988281 72.199219 615.796875 70.066406 Z M 615.65625 78.597656 C 614.800781 79.308594 612.953125 80.730469 612.097656 81.441406 C 631.15625 80.589844 649.933594 85.140625 668.992188 83.148438 C 685.914062 82.011719 702.699219 84.714844 719.339844 87.417969 C 729.722656 89.40625 740.53125 88.695312 750.914062 89.976562 C 763.855469 91.542969 777.226562 90.117188 789.742188 94.242188 C 792.726562 94.953125 794.71875 97.515625 796.425781 99.933594 C 791.019531 100.785156 785.617188 100.929688 780.355469 102.351562 C 776.515625 104.199219 777.507812 109.175781 776.371094 112.589844 C 780.210938 111.738281 784.050781 110.457031 788.035156 110.03125 C 793.582031 109.460938 799.128906 111.738281 804.816406 111.027344 C 809.085938 106.332031 806.949219 99.078125 809.085938 93.53125 C 785.191406 90.402344 761.582031 84.855469 737.542969 82.722656 C 717.207031 80.304688 697.152344 74.757812 676.386719 74.757812 C 656.332031 76.609375 635.710938 74.617188 615.65625 78.597656 Z M 731.285156 96.234375 C 728.441406 101.070312 725.3125 105.90625 725.171875 111.59375 C 731.855469 113.300781 738.679688 114.011719 745.367188 114.867188 C 752.335938 116.003906 759.730469 114.296875 766.273438 117.710938 C 762.292969 122.832031 755.75 122.261719 750.058594 122.6875 C 756.175781 128.378906 763.570312 132.503906 771.25 135.488281 C 768.832031 124.253906 774.378906 111.738281 767.410156 101.640625 C 756.316406 96.378906 743.375 96.660156 731.285156 96.234375 Z M 688.761719 116.859375 C 696.011719 124.109375 708.101562 117.570312 715.640625 124.824219 C 707.390625 125.390625 699.140625 124.109375 690.894531 125.25 C 693.878906 130.511719 699.855469 132.074219 704.6875 134.777344 C 711.375 138.191406 715.925781 144.449219 721.328125 149.710938 C 729.4375 157.820312 740.671875 162.511719 747.640625 171.757812 C 750.488281 176.167969 756.460938 175.457031 760.867188 177.589844 C 756.460938 178.867188 751.765625 178.726562 747.214844 179.011719 C 751.054688 186.40625 754.894531 193.945312 759.019531 201.199219 C 760.15625 201.199219 762.433594 201.054688 763.429688 201.054688 C 764.425781 186.40625 762.859375 171.757812 763.285156 157.109375 C 763.003906 154.832031 763.996094 151.84375 761.722656 150.28125 C 755.890625 144.875 748.210938 142.601562 740.671875 141.179688 C 732.140625 140.039062 734.839844 127.808594 726.734375 125.816406 C 714.359375 121.550781 702.128906 114.582031 688.761719 116.859375 Z M 780.210938 116.574219 C 780.210938 120.699219 780.355469 124.824219 780.496094 128.945312 C 789.3125 128.664062 797.988281 130.511719 806.097656 133.640625 C 805.386719 129.515625 805.386719 125.25 803.535156 121.410156 C 796.851562 116.574219 788.035156 117 780.210938 116.574219 Z M 597.449219 126.527344 C 597.875 133.214844 602.710938 138.191406 605.414062 144.023438 C 605.128906 147.863281 604.5625 151.703125 604.136719 155.542969 C 609.539062 156.398438 615.796875 154.832031 620.347656 158.816406 C 610.25 164.21875 598.160156 168.769531 586.925781 163.648438 C 582.800781 166.636719 577.679688 169.054688 575.832031 174.175781 C 574.550781 178.015625 574.976562 184.132812 579.8125 185.125 C 596.027344 189.679688 614.234375 186.832031 629.308594 195.9375 C 611.816406 193.800781 594.035156 195.226562 576.402344 193.660156 C 576.402344 198.78125 576.117188 204.042969 577.253906 209.164062 C 578.960938 216.984375 585.789062 222.246094 588.207031 229.785156 C 587.636719 235.617188 582.800781 239.171875 578.675781 242.585938 C 580.097656 244.578125 581.664062 246.570312 583.085938 248.558594 C 572.703125 257.378906 557.910156 252.542969 545.539062 254.960938 C 558.765625 257.664062 572.558594 257.378906 585.929688 259.796875 C 579.8125 263.351562 572.558594 263.492188 565.875 265.058594 C 569.574219 268.757812 573.984375 271.601562 578.25 274.585938 C 569.429688 275.015625 560.753906 275.582031 551.9375 275.726562 C 545.964844 275.441406 541.128906 279.28125 537.574219 283.691406 C 540.984375 289.804688 545.820312 295.210938 548.808594 301.609375 C 538.851562 301.46875 530.460938 307.300781 520.648438 307.726562 C 520.648438 311.28125 520.933594 314.835938 521.5 318.25 C 532.738281 320.527344 544.398438 318.679688 555.777344 319.816406 C 560.613281 319.957031 565.589844 321.238281 570.285156 319.957031 C 573.699219 315.40625 576.117188 310.285156 579.53125 305.734375 C 587.777344 294.5 592.328125 280.988281 595.03125 267.332031 C 596.453125 260.363281 604.5625 257.804688 607.832031 251.972656 C 611.957031 244.433594 614.375 235.617188 620.777344 229.5 C 627.601562 221.964844 637.699219 217.980469 643.957031 210.015625 C 646.519531 203.902344 645.808594 197.074219 645.808594 190.53125 C 645.523438 179.4375 643.390625 167.632812 635.710938 159.097656 C 624.1875 146.867188 611.105469 136.058594 597.449219 126.527344 Z M 781.066406 133.78125 C 781.917969 140.324219 779.644531 148.148438 784.050781 153.695312 C 795.003906 155.542969 806.382812 153.980469 817.332031 156.398438 C 811.929688 150.28125 807.234375 143.453125 805.8125 135.347656 C 797.707031 134.210938 789.457031 133.925781 781.066406 133.78125 Z M 783.199219 159.953125 C 787.75 169.765625 790.738281 180.148438 794.148438 190.390625 C 800.691406 208.453125 807.660156 226.230469 814.773438 244.007812 C 818.328125 251.546875 821.316406 259.652344 827.714844 265.34375 C 830.558594 252.117188 829.566406 237.464844 837.53125 225.660156 C 838.382812 231.066406 839.09375 236.613281 839.945312 242.015625 C 842.933594 240.167969 845.921875 238.175781 849.050781 236.46875 C 849.050781 243.296875 848.625 249.980469 848.90625 256.808594 C 861.566406 255.386719 874.507812 254.535156 887.023438 257.378906 C 885.746094 251.40625 885.03125 245.289062 882.617188 239.597656 C 873.226562 232.914062 859.714844 232.914062 851.753906 224.097656 C 844.070312 211.582031 841.796875 196.789062 836.816406 183.136719 C 833.40625 174.316406 827.289062 166.78125 820.746094 159.953125 C 808.371094 157.390625 795.714844 158.816406 783.199219 159.953125 Z M 625.894531 233.199219 C 618.5 239.03125 615.941406 248.277344 612.097656 256.382812 C 607.546875 260.507812 601.859375 264.488281 600.4375 270.890625 C 596.597656 286.109375 591.617188 301.46875 581.949219 314.125 C 578.960938 319.390625 572.132812 324.507812 574.835938 331.335938 C 581.949219 348.828125 594.890625 363.480469 600.152344 381.828125 C 607.546875 407.996094 610.394531 435.304688 610.25 462.46875 C 610.675781 466.734375 608.117188 470.292969 606.125 473.847656 C 609.824219 481.386719 611.386719 490.0625 615.226562 497.316406 C 656.617188 504.570312 699.285156 512.25 741.242188 504.710938 C 751.199219 503.289062 760.867188 498.878906 768.265625 492.050781 C 764.851562 487.5 760.015625 483.234375 759.589844 477.261719 C 767.269531 444.40625 773.101562 411.125 780.210938 378.128906 C 781.777344 360.207031 785.472656 341.578125 795.714844 326.5 C 791.730469 321.949219 787.75 316.972656 787.324219 310.714844 C 786.328125 300.472656 786.46875 290.089844 783.765625 280.132812 C 781.207031 269.46875 776.515625 258.230469 766.414062 252.96875 C 754.183594 246.140625 741.242188 240.453125 730.859375 230.78125 C 720.761719 221.964844 715.355469 209.164062 705.257812 200.488281 C 696.15625 199.632812 686.769531 200.628906 677.808594 201.910156 C 671.691406 202.90625 665.859375 200.34375 659.886719 199.207031 C 650.785156 212.71875 638.554688 223.386719 625.894531 233.199219 Z M 845.492188 262.355469 C 852.890625 264.488281 860.429688 266.195312 867.113281 270.179688 C 871.664062 273.164062 877.496094 271.457031 882.472656 273.164062 C 884.179688 274.871094 884.605469 277.433594 885.601562 279.566406 C 866.542969 284.402344 846.917969 279.851562 827.574219 279.28125 C 818.898438 279.140625 810.222656 277.859375 801.546875 277.148438 C 802.257812 281.554688 802.542969 286.820312 806.238281 289.949219 C 813.351562 297.34375 824.160156 292.507812 832.976562 293.789062 C 850.328125 295.210938 867.679688 296.773438 885.03125 298.195312 C 892.996094 299.761719 901.816406 299.476562 908.644531 304.3125 C 887.449219 306.160156 866.257812 304.027344 845.066406 304.882812 C 847.058594 308.4375 849.191406 312.136719 852.746094 314.269531 C 864.695312 322.089844 878.347656 326.785156 892.144531 330.339844 C 898.117188 332.1875 905.65625 330.339844 910.492188 334.890625 C 886.738281 336.3125 863.273438 330.484375 839.519531 330.765625 C 843.503906 347.691406 860.710938 359.210938 877.636719 359.496094 C 892.855469 360.777344 907.789062 364.191406 922.867188 366.894531 C 930.832031 368.316406 939.078125 368.742188 946.902344 371.300781 C 943.203125 376.136719 936.660156 373.152344 931.683594 373.007812 C 916.039062 372.011719 900.25 372.441406 884.605469 372.722656 C 885.746094 378.980469 886.597656 385.382812 889.441406 391.070312 C 892.285156 397.472656 897.550781 402.589844 900.25 409.132812 C 894.847656 409.277344 889.585938 409.277344 884.179688 409.703125 C 889.441406 415.675781 896.980469 419.945312 899.253906 427.90625 C 902.242188 434.734375 903.378906 445.828125 894.421875 448.390625 C 884.039062 447.109375 873.65625 443.554688 862.988281 444.265625 C 858.578125 445.402344 852.464844 450.523438 849.191406 444.691406 C 844.070312 436.300781 851.894531 428.191406 852.320312 419.945312 C 849.335938 412.691406 843.359375 406.714844 841.9375 398.75 C 841.511719 391.640625 842.792969 384.246094 840.800781 377.132812 C 837.957031 369.738281 832.976562 363.480469 828.996094 356.652344 C 823.734375 348.828125 819.183594 340.582031 813.066406 333.328125 C 812.925781 341.433594 811.21875 350.820312 816.90625 357.503906 C 821.03125 363.335938 829.28125 367.175781 828.425781 375.425781 C 823.023438 376.847656 817.476562 377.132812 811.929688 377.703125 C 811.644531 381.683594 811.21875 385.667969 812.496094 389.507812 C 817.761719 408.28125 828 425.0625 835.539062 442.84375 C 838.667969 449.667969 838.523438 459.910156 831.414062 464.316406 C 821.742188 467.449219 811.5 464.601562 801.546875 465.882812 C 796.425781 467.730469 796.851562 473.847656 796.140625 478.257812 C 828.140625 480.675781 860.429688 479.535156 892.429688 481.671875 C 926.988281 482.523438 961.265625 485.226562 995.828125 486.222656 C 988.289062 446.964844 973.5 409.417969 953.871094 374.714844 C 941.496094 349.113281 925.851562 325.363281 913.621094 299.761719 C 907.648438 288.667969 903.097656 276.863281 896.839844 266.054688 C 890.296875 262.78125 883.46875 258.941406 875.929688 259.796875 C 865.832031 260.648438 855.449219 259.9375 845.492188 262.355469 Z M 545.253906 325.21875 C 548.238281 330.339844 551.652344 335.175781 555.492188 339.726562 C 565.875 352.953125 581.519531 361.203125 591.191406 375.140625 C 595.316406 381.96875 593.46875 390.359375 593.46875 397.898438 C 586.925781 398.039062 580.242188 397.757812 573.699219 397.757812 C 575.121094 408.28125 582.515625 416.246094 587.496094 425.207031 C 590.765625 431.464844 597.164062 437.296875 595.886719 444.976562 C 590.765625 452.230469 581.804688 455.640625 573.273438 457.066406 C 573.699219 459.625 572.84375 463.464844 576.257812 464.175781 C 584.507812 466.453125 593.324219 466.023438 601.859375 465.742188 C 603.421875 461.757812 604.847656 457.632812 604.703125 453.367188 C 603.707031 428.902344 601.148438 404.296875 594.605469 380.546875 C 591.761719 369.738281 584.507812 360.917969 579.53125 351.105469 C 574.976562 343.425781 573.128906 333.328125 565.023438 328.347656 C 558.90625 325.363281 551.796875 325.503906 545.253906 325.21875 Z M 497.324219 384.246094 C 497.75 394.058594 494.90625 404.867188 500.023438 413.828125 C 503.4375 420.371094 510.976562 424.777344 511.402344 432.886719 C 507.136719 430.609375 503.296875 427.90625 499.027344 425.632812 C 500.878906 429.898438 504.148438 433.597656 505.144531 438.289062 C 504.148438 443.695312 498.886719 447.535156 498.886719 453.222656 C 499.171875 459.199219 505.570312 463.890625 511.402344 461.617188 C 514.105469 457.347656 516.949219 452.941406 519.082031 448.390625 C 520.789062 444.265625 519.082031 439.996094 518.085938 436.015625 C 516.378906 431.035156 519.652344 424.777344 515.667969 420.511719 C 509.839844 413.542969 507.847656 404.582031 508.132812 395.765625 C 508.132812 389.792969 501.730469 386.945312 497.324219 384.246094 Z M 459.347656 419.945312 C 461.195312 423.785156 463.613281 428.476562 460.199219 432.316406 C 457.640625 438.289062 451.097656 439.714844 445.695312 441.988281 C 453.800781 446.824219 463.613281 446.398438 472.574219 446.539062 C 472.007812 437.722656 469.304688 429.1875 466.460938 420.9375 C 464.753906 420.65625 461.195312 420.226562 459.347656 419.945312 Z M 433.746094 448.957031 C 445.695312 455.785156 460.914062 451.800781 472.574219 458.769531 C 467.027344 460.050781 459.632812 457.207031 455.648438 462.46875 C 460.199219 471.570312 473 464.886719 479.972656 471.144531 C 475.5625 472 471.152344 472.566406 466.742188 472.851562 C 467.027344 473.707031 467.453125 475.554688 467.738281 476.40625 C 471.4375 477.261719 475.136719 478.683594 478.976562 477.6875 C 483.527344 475.269531 486.796875 471.003906 490.496094 467.445312 C 488.21875 460.761719 484.09375 454.648438 477.835938 450.949219 C 472.433594 448.53125 466.460938 448.957031 460.628906 448.671875 C 451.523438 448.816406 442.707031 447.960938 433.746094 448.957031 Z M 497.890625 472.425781 C 498.035156 473.421875 498.175781 475.269531 498.175781 476.265625 C 511.261719 479.820312 525.625 477.117188 538.285156 482.238281 C 485.089844 486.648438 431.753906 485.792969 378.421875 483.375 C 349.265625 481.242188 320.109375 480.105469 290.949219 480.53125 C 270.898438 480.53125 251.128906 485.082031 231.640625 489.492188 C 231.785156 491.484375 232.070312 493.332031 232.210938 495.324219 C 236.195312 496.175781 240.175781 496.886719 244.300781 496.320312 C 264.78125 493.757812 285.261719 496.886719 305.742188 498.878906 C 341.726562 500.585938 377.851562 504 413.835938 501.296875 C 447.96875 499.734375 482.105469 503.289062 516.097656 500.015625 C 546.53125 496.746094 577.253906 496.460938 607.832031 497.171875 C 605.699219 487.644531 601.574219 474.84375 590.625 472.710938 C 559.902344 471.144531 528.753906 469.152344 497.890625 472.425781 Z M 497.890625 472.425781 " fill-opacity="1" fill-rule="nonzero"/></g><path fill="#bfa18f" d="M 799.554688 170.761719 C 807.234375 170.902344 815.34375 170.335938 822.453125 174.03125 C 815.058594 174.460938 807.519531 174.03125 800.125 174.316406 C 799.839844 173.320312 799.695312 171.613281 799.554688 170.761719 Z M 799.554688 170.761719 " fill-opacity="1" fill-rule="nonzero"/><path fill="#bfa18f" d="M 385.390625 528.179688 C 393.496094 524.054688 403.167969 525.191406 411.984375 524.480469 C 438.015625 524.195312 464.183594 524.621094 490.210938 526.328125 C 504.574219 527.183594 518.796875 524.195312 533.164062 526.042969 C 567.15625 527.039062 601.148438 530.597656 634.855469 535.433594 C 652.632812 537.421875 668.277344 547.378906 686.058594 549.511719 C 692.742188 551.21875 700.707031 550.222656 706.394531 554.773438 C 667.851562 556.054688 629.308594 551.21875 590.765625 551.21875 C 573.839844 551.359375 556.914062 547.949219 540.984375 541.972656 C 531.316406 538.132812 521.074219 536.855469 510.832031 536.285156 C 473.570312 533.296875 436.449219 527.75 398.902344 528.746094 C 394.492188 528.746094 389.941406 529.03125 385.390625 528.179688 Z M 385.390625 528.179688 " fill-opacity="1" fill-rule="nonzero"/><path fill="#bfa18f" d="M 802.113281 532.730469 C 817.617188 531.875 832.976562 527.75 848.621094 528.605469 C 844.925781 533.15625 838.523438 531.875 833.40625 533.15625 C 820.175781 534.578125 807.378906 538.132812 794.007812 538.417969 C 776.371094 538.84375 758.59375 538.417969 741.242188 534.863281 C 761.582031 533.726562 781.917969 535.574219 802.113281 532.730469 Z M 802.113281 532.730469 " fill-opacity="1" fill-rule="nonzero"/></svg>