<svg xmlns="http://www.w3.org/2000/svg" xmlns:xlink="http://www.w3.org/1999/xlink" width="1080" zoomAndPan="magnify" viewBox="0 0 810 809.999993" height="1080" preserveAspectRatio="xMidYMid meet" version="1.0"><defs><filter x="0%" y="0%" width="100%" height="100%" id="49f700e1fe"><feColorMatrix values="0 0 0 0 1 0 0 0 0 1 0 0 0 0 1 0 0 0 1 0" color-interpolation-filters="sRGB"/></filter><clipPath id="848dae0747"><path d="M 24.730469 155.355469 L 262 155.355469 L 262 271 L 24.730469 271 Z M 24.730469 155.355469 " clip-rule="nonzero"/></clipPath><mask id="02ec69dfb2"><g filter="url(#49f700e1fe)"><rect x="-81" width="972" fill="#000000" y="-80.999999" height="971.999992" fill-opacity="0.15"/></g></mask><clipPath id="95d0696413"><path d="M 0.730469 0.355469 L 234 0.355469 L 234 112 L 0.730469 112 Z M 0.730469 0.355469 " clip-rule="nonzero"/></clipPath><clipPath id="f7f3abbcf3"><path d="M 0.730469 0.355469 L 237.359375 0.355469 L 237.359375 115.480469 L 0.730469 115.480469 Z M 0.730469 0.355469 " clip-rule="nonzero"/></clipPath><clipPath id="3e5ff15834"><rect x="0" width="238" y="0" height="116"/></clipPath><clipPath id="b5ebd51074"><path d="M 28.886719 189 L 796.886719 189 L 796.886719 621 L 28.886719 621 Z M 28.886719 189 " clip-rule="nonzero"/></clipPath></defs><g clip-path="url(#848dae0747)"><g mask="url(#02ec69dfb2)"><g transform="matrix(1, 0, 0, 1, 24, 155)"><g clip-path="url(#3e5ff15834)"><g clip-path="url(#95d0696413)"><path fill="#bfa18f" d="M 117.792969 -703.042969 C 117.792969 -703.042969 233.011719 -555.570312 233.011719 -555.570312 C 233.011719 -555.570312 -620.207031 111.039062 -620.207031 111.039062 C -620.207031 111.039062 -735.425781 -36.433594 -735.425781 -36.433594 C -735.425781 -36.433594 117.792969 -703.042969 117.792969 -703.042969 Z M 117.792969 -703.042969 " fill-opacity="1" fill-rule="nonzero"/></g><g clip-path="url(#f7f3abbcf3)"><path stroke-linecap="butt" transform="matrix(0.235698, -0.184147, 0.184147, 0.235698, -251.208266, -296.002318)" fill="none" stroke-linejoin="miter" d="M 1809.989503 -312.842441 C 1809.989503 -312.842441 1809.990831 312.844314 1809.990831 312.844314 C 1809.990831 312.844314 -1809.984499 312.849444 -1809.984499 312.849444 C -1809.984499 312.849444 -1809.985826 -312.837311 -1809.985826 -312.837311 C -1809.985826 -312.837311 1809.989503 -312.842441 1809.989503 -312.842441 Z M 1809.989503 -312.842441 " stroke="#bfa18f" stroke-width="5" stroke-opacity="1" stroke-miterlimit="4"/></g></g></g></g></g><path fill="#401201" d="M 533.660156 770.332031 C 533.660156 770.332031 285.601562 770.332031 285.601562 770.332031 C 285.601562 770.332031 285.601562 770.316406 285.601562 770.316406 C 285.601562 766.492188 286.347656 762.75 287.757812 759.261719 C 288.878906 756.476562 290.421875 753.855469 292.335938 751.488281 C 300.5 741.40625 306.972656 730.695312 311.507812 719.257812 C 319.058594 700.210938 321.238281 679.15625 316.878906 655.65625 C 316.878906 655.65625 500.066406 655.65625 500.066406 655.65625 C 495.363281 677.660156 497.972656 698.828125 507.046875 719.257812 C 511.910156 730.210938 518.632812 740.953125 527.085938 751.496094 C 528.980469 753.855469 530.484375 756.476562 531.574219 759.261719 C 531.714844 759.617188 531.855469 759.984375 531.980469 760.351562 C 533.085938 763.539062 533.660156 766.910156 533.660156 770.332031 Z M 533.660156 770.332031 " fill-opacity="1" fill-rule="nonzero"/><path fill="#401201" d="M 531.113281 758.722656 C 531.113281 758.722656 287.296875 758.722656 287.296875 758.722656 C 288.417969 755.941406 289.960938 753.320312 291.875 750.953125 C 300.039062 740.871094 306.511719 730.160156 311.046875 718.722656 C 311.046875 718.722656 506.585938 718.722656 506.585938 718.722656 C 511.449219 729.675781 518.171875 740.414062 526.625 750.960938 C 528.519531 753.320312 530.023438 755.941406 531.113281 758.722656 Z M 531.113281 758.722656 " fill-opacity="1" fill-rule="nonzero"/><path fill="#bfa18f" d="M 409.796875 149.09375 C 406.929688 149.09375 404.613281 151.410156 404.613281 154.273438 C 404.613281 157.136719 406.929688 159.453125 409.796875 159.453125 C 412.65625 159.453125 414.976562 157.136719 414.976562 154.273438 C 414.976562 151.410156 412.65625 149.09375 409.796875 149.09375 Z M 409.796875 149.09375 " fill-opacity="1" fill-rule="nonzero"/><path fill="#401201" d="M 781.585938 143.101562 C 781.585938 143.101562 38 143.101562 38 143.101562 C 23.964844 143.101562 12.582031 153.921875 12.582031 167.265625 C 12.582031 167.265625 12.582031 643.960938 12.582031 643.960938 C 12.582031 658.089844 24.035156 669.542969 38.164062 669.542969 C 38.164062 669.542969 781.425781 669.542969 781.425781 669.542969 C 795.554688 669.542969 807.007812 658.089844 807.007812 643.960938 C 807.007812 643.960938 807.007812 167.265625 807.007812 167.265625 C 807.007812 153.921875 795.628906 143.101562 781.585938 143.101562 Z M 409.121094 149.136719 C 412.507812 148.707031 415.359375 151.550781 414.933594 154.945312 C 414.644531 157.257812 412.777344 159.125 410.464844 159.414062 C 407.074219 159.835938 404.226562 156.988281 404.65625 153.597656 C 404.949219 151.289062 406.8125 149.425781 409.121094 149.136719 Z M 31.980469 166.164062 C 31.980469 166.164062 787.613281 166.164062 787.613281 166.164062 C 787.613281 166.164062 787.613281 591.207031 787.613281 591.207031 C 787.613281 591.207031 31.980469 591.207031 31.980469 591.207031 C 31.980469 591.207031 31.980469 166.164062 31.980469 166.164062 Z M 31.980469 166.164062 " fill-opacity="1" fill-rule="nonzero"/><path fill="#401201" d="M 414.980469 154.273438 C 414.980469 157.136719 412.660156 159.457031 409.796875 159.457031 C 406.933594 159.457031 404.613281 157.136719 404.613281 154.273438 C 404.613281 151.410156 406.933594 149.089844 409.796875 149.089844 C 412.660156 149.089844 414.980469 151.410156 414.980469 154.273438 Z M 414.980469 154.273438 " fill-opacity="1" fill-rule="nonzero"/><g clip-path="url(#b5ebd51074)"><path fill="#401201" d="M 321.421875 190.976562 C 330.921875 188.851562 340.667969 189.851562 350.292969 189.726562 C 365.539062 190.351562 380.910156 189.226562 396.035156 191.851562 C 406.40625 193.601562 416.78125 195.226562 427.277344 196.226562 C 449.273438 197.476562 471.519531 200.847656 492.140625 208.972656 C 497.011719 210.722656 494.265625 217.222656 496.886719 220.71875 C 499.761719 225.71875 497.636719 231.21875 496.765625 236.46875 C 497.386719 239.21875 498.511719 241.839844 499.136719 244.589844 C 498.886719 247.839844 497.011719 250.964844 497.261719 254.339844 C 501.136719 263.085938 508.011719 269.960938 514.761719 276.585938 C 525.757812 288.582031 527.132812 305.328125 530.007812 320.449219 C 531.007812 327.824219 539.503906 329.074219 545.253906 331.449219 C 551.753906 334.199219 559.875 335.449219 563.75 342.070312 C 577.871094 363.566406 585.621094 388.4375 598.367188 410.683594 C 606.867188 425.804688 613.492188 441.925781 621.988281 456.925781 C 624.988281 450.175781 630.238281 444.925781 637.359375 442.675781 C 636.484375 435.679688 640.859375 428.679688 647.859375 427.304688 C 655.484375 425.554688 662.105469 421.429688 668.480469 416.933594 C 670.730469 414.558594 671.605469 411.308594 673.605469 408.808594 C 680.226562 406.933594 687.226562 407.683594 693.976562 406.933594 C 702.347656 405.808594 710.847656 405.558594 719.34375 406.558594 C 717.21875 408.183594 715.097656 409.933594 712.847656 411.308594 C 717.71875 413.183594 723.71875 417.683594 728.46875 413.308594 C 729.96875 416.683594 731.46875 420.179688 733.71875 423.179688 C 737.214844 424.554688 743.214844 423.054688 744.589844 427.554688 C 746.589844 434.179688 749.589844 440.925781 748.464844 447.925781 C 747.839844 450.800781 749.964844 453.300781 751.214844 455.675781 C 757.585938 466.296875 763.960938 477.296875 766.585938 489.667969 C 768.460938 498.417969 772.710938 506.539062 775.585938 514.914062 C 780.582031 529.660156 784.957031 544.65625 787.832031 560.027344 C 790.707031 575.277344 796.203125 590.023438 797.078125 605.644531 C 785.457031 607.519531 773.585938 606.644531 762.085938 604.894531 C 772.960938 603.144531 784.082031 602.519531 795.082031 602.519531 C 792.582031 595.773438 792.207031 587.648438 786.082031 583.023438 C 783.707031 579.898438 779.582031 580.273438 776.085938 580.273438 C 766.085938 580.398438 756.089844 579.648438 746.089844 578.777344 C 759.835938 577.152344 773.835938 577.902344 787.207031 574.152344 C 786.832031 565.777344 784.332031 557.78125 780.957031 550.15625 C 776.085938 549.28125 771.210938 548.40625 766.335938 547.90625 C 766.710938 553.28125 767.335938 558.65625 767.210938 564.152344 C 763.085938 554.40625 762.960938 543.78125 759.960938 533.785156 C 755.714844 520.285156 752.214844 505.289062 740.589844 496.042969 C 740.589844 493.542969 740.589844 491.042969 740.589844 488.417969 C 737.964844 486.667969 735.34375 485.042969 732.84375 483.167969 C 735.46875 483.792969 738.839844 483.667969 740.589844 486.167969 C 742.839844 489.167969 742.839844 493.292969 745.464844 496.042969 C 758.710938 509.414062 763.585938 528.785156 765.960938 546.90625 C 770.710938 547.03125 775.460938 547.03125 780.207031 547.15625 C 777.457031 536.410156 776.210938 525.285156 772.210938 514.914062 C 769.210938 506.914062 766.335938 499.042969 762.835938 491.292969 C 761.210938 476.921875 751.714844 465.296875 746.464844 452.175781 C 744.464844 448.425781 746.839844 444.050781 745.589844 440.175781 C 744.589844 436.054688 743.714844 431.804688 743.464844 427.554688 C 736.964844 427.429688 731.71875 424.054688 726.84375 420.054688 C 721.21875 422.429688 724.21875 429.054688 728.09375 431.554688 C 726.46875 433.054688 724.71875 434.554688 723.21875 436.179688 C 729.34375 437.429688 735.46875 438.054688 741.589844 438.804688 C 734.21875 438.929688 726.96875 439.550781 719.59375 439.800781 C 718.96875 441.050781 717.71875 443.675781 716.972656 444.925781 C 718.96875 446.050781 720.96875 447.175781 723.09375 448.175781 C 721.09375 448.800781 719.21875 449.425781 717.222656 450.050781 C 719.59375 462.796875 718.59375 475.671875 719.21875 488.417969 C 718.96875 494.667969 726.09375 498.292969 725.46875 504.664062 C 724.96875 510.664062 718.84375 514.789062 719.34375 521.035156 C 719.71875 529.285156 719.84375 537.535156 719.09375 545.78125 C 727.21875 546.78125 735.34375 547.78125 743.339844 549.03125 C 734.96875 549.78125 726.71875 548.65625 718.34375 549.65625 C 711.472656 557.65625 715.097656 569.402344 716.597656 578.777344 C 719.46875 579.023438 722.34375 579.148438 725.21875 579.523438 C 720.84375 581.023438 715.222656 581.523438 713.097656 586.273438 C 710.472656 592.273438 713.597656 599.394531 718.84375 602.894531 C 718.84375 598.769531 718.71875 594.523438 718.96875 590.398438 C 732.71875 589.773438 747.839844 591.273438 759.085938 599.894531 C 754.464844 602.019531 749.964844 605.519531 744.589844 605.269531 C 717.34375 606.394531 689.976562 605.519531 662.605469 605.894531 C 659.355469 593.773438 655.609375 581.648438 648.609375 571.277344 C 647.234375 569.527344 645.984375 567.402344 643.984375 566.402344 C 621.988281 563.902344 599.742188 565.027344 577.621094 564.902344 C 573.875 565.152344 568.375 564.402344 566.75 568.777344 C 570 573.902344 575.875 576.652344 578.871094 582.023438 C 581.496094 586.398438 582.871094 592.398438 579.621094 596.898438 C 576.375 601.019531 571.25 602.894531 567.625 606.644531 C 567.25 608.894531 566.875 611.144531 566.875 613.394531 C 573.375 617.644531 581.371094 616.644531 588.621094 617.769531 C 594.996094 618.765625 601.617188 618.390625 607.742188 620.390625 C 595.496094 620.390625 583.246094 620.765625 571 620.640625 C 564.125 621.140625 561.25 613.894531 556.128906 610.769531 C 549.628906 611.769531 543.503906 614.769531 536.757812 615.019531 C 524.882812 615.519531 512.886719 615.519531 501.011719 613.769531 C 517.132812 609.394531 532.382812 602.644531 548.753906 599.144531 C 551.753906 598.519531 554.878906 597.648438 557.25 595.398438 C 548.878906 591.398438 539.628906 593.023438 530.632812 592.648438 C 535.882812 590.023438 543.003906 590.523438 546.503906 585.148438 C 552.253906 578.152344 547.878906 566.652344 539.378906 564.527344 C 523.132812 560.152344 506.011719 559.402344 489.265625 559.777344 C 478.640625 559.902344 467.394531 562.527344 459.394531 570.027344 C 446.148438 581.898438 427.902344 585.648438 410.78125 587.898438 C 376.664062 589.648438 343.292969 580.773438 309.925781 575.277344 C 299.300781 574.027344 288.679688 573.027344 278.054688 571.652344 C 267.433594 571.152344 256.9375 573.652344 246.5625 575.527344 C 236.566406 577.277344 227.816406 583.523438 217.570312 584.398438 C 207.820312 585.273438 197.945312 584.648438 188.199219 583.773438 C 162.578125 580.398438 136.835938 581.148438 111.089844 580.648438 C 95.96875 579.648438 79.71875 576.527344 65.472656 583.523438 C 58.472656 586.773438 55.476562 596.023438 47.226562 597.023438 C 37.730469 597.898438 29.105469 591.148438 19.480469 592.523438 C 10.734375 593.648438 1.984375 592.148438 -6.761719 592.648438 C -17.011719 593.648438 -27.257812 597.273438 -37.507812 595.148438 C -38.007812 594.648438 -39.132812 593.773438 -39.757812 593.273438 C -40.007812 588.398438 -39.882812 583.523438 -40.382812 578.648438 C -41.257812 568.527344 -38.632812 558.527344 -38.882812 548.40625 C -27.632812 549.53125 -16.386719 550.53125 -5.136719 548.90625 C 23.230469 547.90625 51.601562 548.03125 79.96875 549.65625 C 93.46875 549.65625 106.839844 550.78125 120.335938 550.15625 C 119.710938 548.90625 118.585938 546.28125 118.085938 544.90625 C 84.96875 539.28125 51.476562 534.535156 17.859375 536.285156 C -1.886719 537.035156 -21.261719 532.410156 -40.882812 531.785156 C -40.757812 531.035156 -40.382812 529.535156 -40.257812 528.785156 C -19.761719 530.410156 1.109375 535.160156 21.605469 530.535156 C 47.101562 526.160156 71.722656 535.785156 96.59375 539.40625 C 112.589844 541.28125 128.835938 542.03125 145.082031 541.53125 C 145.207031 537.035156 144.707031 532.660156 145.332031 528.160156 C 147.707031 521.785156 155.332031 521.160156 160.703125 518.660156 C 164.203125 513.914062 163.953125 507.289062 167.828125 502.664062 C 172.828125 494.792969 184.324219 493.792969 191.949219 498.414062 C 192.324219 491.292969 193.574219 484.292969 194.949219 477.296875 C 196.449219 469.546875 195.449219 461.046875 199.195312 453.800781 C 201.945312 448.175781 199.570312 441.425781 202.570312 435.804688 C 205.070312 432.304688 208.570312 429.804688 211.820312 426.929688 C 217.195312 422.679688 221.316406 416.808594 227.441406 413.308594 C 224.316406 410.183594 220.066406 406.933594 220.316406 401.933594 C 219.566406 384.6875 226.316406 368.191406 228.066406 351.195312 C 227.566406 343.945312 224.816406 337.074219 225.066406 329.824219 C 224.566406 320.699219 227.691406 311.953125 230.941406 303.578125 C 234.316406 295.582031 236.441406 286.957031 241.1875 279.707031 C 248.8125 267.710938 256.5625 255.839844 264.808594 244.339844 C 269.058594 238.34375 269.933594 230.46875 274.558594 224.71875 C 276.683594 221.71875 279.679688 219.09375 280.804688 215.472656 C 279.804688 212.847656 278.429688 210.472656 277.308594 207.972656 C 280.429688 206.472656 283.804688 205.347656 287.179688 204.347656 C 288.679688 201.597656 289.429688 197.726562 293.054688 196.976562 C 302.175781 193.726562 311.925781 192.851562 321.421875 190.976562 Z M 321.296875 198.476562 C 320.546875 199.101562 318.921875 200.347656 318.171875 200.972656 C 334.921875 200.222656 351.417969 204.222656 368.164062 202.472656 C 383.035156 201.472656 397.78125 203.847656 412.40625 206.222656 C 421.527344 207.972656 431.027344 207.347656 440.148438 208.472656 C 451.523438 209.847656 463.269531 208.597656 474.269531 212.222656 C 476.894531 212.847656 478.640625 215.097656 480.140625 217.222656 C 475.394531 217.972656 470.644531 218.097656 466.019531 219.347656 C 462.644531 220.96875 463.519531 225.34375 462.519531 228.34375 C 465.894531 227.59375 469.269531 226.46875 472.769531 226.09375 C 477.640625 225.59375 482.515625 227.59375 487.515625 226.96875 C 491.265625 222.84375 489.390625 216.472656 491.265625 211.597656 C 470.269531 208.847656 449.523438 203.972656 428.402344 202.097656 C 410.53125 199.972656 392.910156 195.101562 374.664062 195.101562 C 357.042969 196.726562 338.917969 194.976562 321.296875 198.476562 Z M 422.902344 213.972656 C 420.402344 218.222656 417.652344 222.46875 417.527344 227.46875 C 423.402344 228.96875 429.402344 229.59375 435.277344 230.34375 C 441.398438 231.34375 447.898438 229.84375 453.648438 232.84375 C 450.148438 237.34375 444.398438 236.84375 439.398438 237.21875 C 444.773438 242.214844 451.273438 245.839844 458.019531 248.464844 C 455.898438 238.59375 460.769531 227.59375 454.648438 218.722656 C 444.898438 214.097656 433.527344 214.347656 422.902344 213.972656 Z M 385.535156 232.09375 C 391.910156 238.46875 402.53125 232.71875 409.15625 239.09375 C 401.90625 239.59375 394.660156 238.46875 387.410156 239.46875 C 390.035156 244.089844 395.285156 245.464844 399.53125 247.839844 C 405.40625 250.839844 409.40625 256.339844 414.15625 260.960938 C 421.277344 268.085938 431.152344 272.210938 437.277344 280.332031 C 439.773438 284.207031 445.023438 283.582031 448.898438 285.457031 C 445.023438 286.582031 440.898438 286.457031 436.902344 286.707031 C 440.273438 293.207031 443.648438 299.828125 447.273438 306.203125 C 448.273438 306.203125 450.273438 306.078125 451.148438 306.078125 C 452.023438 293.207031 450.648438 280.332031 451.023438 267.460938 C 450.773438 265.460938 451.648438 262.835938 449.648438 261.460938 C 444.523438 256.714844 437.773438 254.714844 431.152344 253.464844 C 423.652344 252.464844 426.027344 241.714844 418.902344 239.964844 C 408.03125 236.21875 397.28125 230.09375 385.535156 232.09375 Z M 465.894531 231.84375 C 465.894531 235.46875 466.019531 239.09375 466.144531 242.714844 C 473.894531 242.464844 481.515625 244.089844 488.640625 246.839844 C 488.015625 243.214844 488.015625 239.46875 486.390625 236.09375 C 480.515625 231.84375 472.769531 232.21875 465.894531 231.84375 Z M 305.300781 240.589844 C 305.675781 246.464844 309.925781 250.839844 312.300781 255.964844 C 312.050781 259.339844 311.550781 262.710938 311.175781 266.085938 C 315.925781 266.835938 321.421875 265.460938 325.421875 268.960938 C 316.550781 273.710938 305.925781 277.710938 296.054688 273.210938 C 292.429688 275.835938 287.929688 277.960938 286.304688 282.457031 C 285.179688 285.832031 285.554688 291.207031 289.804688 292.082031 C 304.050781 296.082031 320.046875 293.582031 333.296875 301.578125 C 317.921875 299.703125 302.300781 300.953125 286.804688 299.578125 C 286.804688 304.078125 286.554688 308.703125 287.554688 313.203125 C 289.054688 320.074219 295.054688 324.699219 297.179688 331.324219 C 296.679688 336.449219 292.429688 339.570312 288.804688 342.570312 C 290.054688 344.320312 291.429688 346.070312 292.679688 347.820312 C 283.554688 355.570312 270.558594 351.320312 259.683594 353.445312 C 271.308594 355.820312 283.429688 355.570312 295.179688 357.695312 C 289.804688 360.816406 283.429688 360.941406 277.554688 362.316406 C 280.804688 365.566406 284.679688 368.066406 288.429688 370.691406 C 280.679688 371.066406 273.058594 371.566406 265.308594 371.691406 C 260.058594 371.441406 255.8125 374.816406 252.6875 378.691406 C 255.6875 384.0625 259.933594 388.8125 262.558594 394.4375 C 253.8125 394.3125 246.4375 399.433594 237.8125 399.808594 C 237.8125 402.933594 238.0625 406.058594 238.5625 409.058594 C 248.4375 411.058594 258.683594 409.433594 268.683594 410.433594 C 272.933594 410.558594 277.308594 411.683594 281.429688 410.558594 C 284.429688 406.558594 286.554688 402.058594 289.554688 398.0625 C 296.804688 388.1875 300.800781 376.316406 303.175781 364.316406 C 304.425781 358.195312 311.550781 355.945312 314.425781 350.820312 C 318.046875 344.195312 320.171875 336.449219 325.796875 331.074219 C 331.796875 324.449219 340.667969 320.949219 346.167969 313.953125 C 348.417969 308.578125 347.792969 302.578125 347.792969 296.832031 C 347.542969 287.082031 345.667969 276.710938 338.917969 269.210938 C 328.796875 258.464844 317.300781 248.964844 305.300781 240.589844 Z M 466.644531 246.964844 C 467.394531 252.714844 465.394531 259.589844 469.269531 264.460938 C 478.890625 266.085938 488.890625 264.710938 498.511719 266.835938 C 493.765625 261.460938 489.640625 255.464844 488.390625 248.339844 C 481.265625 247.339844 474.019531 247.089844 466.644531 246.964844 Z M 468.519531 269.960938 C 472.519531 278.585938 475.144531 287.707031 478.140625 296.707031 C 483.890625 312.578125 490.015625 328.199219 496.265625 343.820312 C 499.386719 350.445312 502.011719 357.570312 507.636719 362.566406 C 510.136719 350.945312 509.261719 338.074219 516.261719 327.699219 C 517.011719 332.449219 517.632812 337.324219 518.382812 342.070312 C 521.007812 340.445312 523.632812 338.699219 526.382812 337.199219 C 526.382812 343.195312 526.007812 349.070312 526.257812 355.070312 C 537.378906 353.820312 548.753906 353.070312 559.75 355.570312 C 558.625 350.320312 558 344.945312 555.878906 339.945312 C 547.628906 334.074219 535.757812 334.074219 528.757812 326.324219 C 522.007812 315.328125 520.007812 302.328125 515.636719 290.332031 C 512.636719 282.582031 507.261719 275.960938 501.511719 269.960938 C 490.640625 267.710938 479.515625 268.960938 468.519531 269.960938 Z M 330.296875 334.324219 C 323.796875 339.449219 321.546875 347.570312 318.171875 354.695312 C 314.175781 358.320312 309.175781 361.816406 307.925781 367.441406 C 304.550781 380.8125 300.175781 394.3125 291.679688 405.433594 C 289.054688 410.058594 283.054688 414.558594 285.429688 420.554688 C 291.679688 435.929688 303.050781 448.800781 307.675781 464.921875 C 314.175781 487.917969 316.675781 511.914062 316.550781 535.785156 C 316.925781 539.53125 314.675781 542.65625 312.925781 545.78125 C 316.175781 552.40625 317.546875 560.027344 320.921875 566.402344 C 357.289062 572.777344 394.785156 579.523438 431.652344 572.902344 C 440.398438 571.652344 448.898438 567.777344 455.398438 561.777344 C 452.398438 557.78125 448.148438 554.03125 447.773438 548.78125 C 454.523438 519.910156 459.644531 490.667969 465.894531 461.671875 C 467.269531 445.925781 470.519531 429.554688 479.515625 416.308594 C 476.019531 412.308594 472.519531 407.933594 472.144531 402.433594 C 471.269531 393.4375 471.394531 384.3125 469.019531 375.566406 C 466.769531 366.191406 462.644531 356.320312 453.773438 351.695312 C 443.023438 345.695312 431.652344 340.695312 422.527344 332.199219 C 413.65625 324.449219 408.90625 313.203125 400.03125 305.578125 C 392.035156 304.828125 383.785156 305.703125 375.914062 306.828125 C 370.539062 307.703125 365.414062 305.453125 360.164062 304.453125 C 352.167969 316.328125 341.417969 325.699219 330.296875 334.324219 Z M 523.257812 359.941406 C 529.757812 361.816406 536.382812 363.316406 542.253906 366.816406 C 546.253906 369.441406 551.378906 367.941406 555.753906 369.441406 C 557.25 370.941406 557.625 373.191406 558.5 375.066406 C 541.753906 379.316406 524.507812 375.316406 507.511719 374.816406 C 499.886719 374.691406 492.265625 373.566406 484.640625 372.941406 C 485.265625 376.816406 485.515625 381.4375 488.765625 384.1875 C 495.015625 390.6875 504.511719 386.4375 512.261719 387.5625 C 527.507812 388.8125 542.753906 390.1875 558 391.4375 C 565 392.8125 572.75 392.5625 578.746094 396.8125 C 560.125 398.4375 541.503906 396.5625 522.882812 397.3125 C 524.632812 400.433594 526.507812 403.683594 529.632812 405.558594 C 540.128906 412.433594 552.128906 416.558594 564.25 419.679688 C 569.5 421.304688 576.125 419.679688 580.371094 423.679688 C 559.5 424.929688 538.878906 419.804688 518.007812 420.054688 C 521.507812 434.929688 536.632812 445.050781 551.503906 445.300781 C 564.875 446.425781 577.996094 449.425781 591.246094 451.800781 C 598.242188 453.050781 605.492188 453.425781 612.367188 455.675781 C 609.117188 459.921875 603.367188 457.300781 598.992188 457.175781 C 585.246094 456.300781 571.375 456.675781 557.625 456.925781 C 558.625 462.421875 559.375 468.046875 561.875 473.046875 C 564.375 478.671875 569 483.167969 571.375 488.917969 C 566.625 489.042969 562 489.042969 557.25 489.417969 C 561.875 494.667969 568.5 498.417969 570.5 505.414062 C 573.125 511.414062 574.125 521.160156 566.25 523.410156 C 557.125 522.285156 548.003906 519.164062 538.628906 519.785156 C 534.757812 520.785156 529.382812 525.285156 526.507812 520.160156 C 522.007812 512.789062 528.882812 505.664062 529.257812 498.417969 C 526.632812 492.042969 521.382812 486.792969 520.132812 479.792969 C 519.757812 473.546875 520.882812 467.046875 519.132812 460.796875 C 516.636719 454.300781 512.261719 448.800781 508.761719 442.800781 C 504.136719 435.929688 500.136719 428.679688 494.765625 422.304688 C 494.640625 429.429688 493.140625 437.679688 498.136719 443.550781 C 501.761719 448.675781 509.011719 452.050781 508.261719 459.300781 C 503.511719 460.546875 498.636719 460.796875 493.765625 461.296875 C 493.515625 464.796875 493.140625 468.296875 494.265625 471.671875 C 498.886719 488.167969 507.886719 502.914062 514.511719 518.539062 C 517.257812 524.535156 517.132812 533.535156 510.886719 537.410156 C 502.386719 540.15625 493.390625 537.660156 484.640625 538.785156 C 480.140625 540.40625 480.515625 545.78125 479.890625 549.65625 C 508.011719 551.78125 536.382812 550.78125 564.5 552.65625 C 594.871094 553.40625 624.988281 555.78125 655.359375 556.65625 C 648.734375 522.160156 635.738281 489.167969 618.488281 458.675781 C 607.617188 436.179688 593.871094 415.308594 583.121094 392.8125 C 577.871094 383.0625 573.875 372.691406 568.375 363.191406 C 562.625 360.316406 556.628906 356.945312 550.003906 357.695312 C 541.128906 358.445312 532.007812 357.820312 523.257812 359.941406 Z M 259.433594 415.183594 C 262.058594 419.679688 265.058594 423.929688 268.433594 427.929688 C 277.554688 439.550781 291.304688 446.800781 299.800781 459.050781 C 303.425781 465.046875 301.800781 472.421875 301.800781 479.046875 C 296.054688 479.171875 290.179688 478.921875 284.429688 478.921875 C 285.679688 488.167969 292.179688 495.167969 296.554688 503.039062 C 299.425781 508.539062 305.050781 513.664062 303.925781 520.410156 C 299.425781 526.785156 291.554688 529.785156 284.054688 531.035156 C 284.429688 533.285156 283.679688 536.660156 286.679688 537.285156 C 293.929688 539.28125 301.675781 538.910156 309.175781 538.660156 C 310.550781 535.160156 311.800781 531.535156 311.675781 527.785156 C 310.800781 506.289062 308.550781 484.667969 302.800781 463.796875 C 300.300781 454.300781 293.929688 446.550781 289.554688 437.929688 C 285.554688 431.179688 283.929688 422.304688 276.808594 417.933594 C 271.433594 415.308594 265.183594 415.433594 259.433594 415.183594 Z M 217.320312 467.046875 C 217.691406 475.671875 215.195312 485.167969 219.691406 493.042969 C 222.691406 498.792969 229.316406 502.664062 229.691406 509.789062 C 225.941406 507.789062 222.566406 505.414062 218.816406 503.414062 C 220.441406 507.164062 223.316406 510.414062 224.191406 514.539062 C 223.316406 519.285156 218.691406 522.660156 218.691406 527.660156 C 218.941406 532.910156 224.566406 537.035156 229.691406 535.035156 C 232.066406 531.285156 234.566406 527.410156 236.441406 523.410156 C 237.9375 519.785156 236.441406 516.039062 235.566406 512.539062 C 234.066406 508.164062 236.941406 502.664062 233.441406 498.917969 C 228.316406 492.792969 226.566406 484.917969 226.816406 477.171875 C 226.816406 471.921875 221.191406 469.421875 217.320312 467.046875 Z M 183.949219 498.417969 C 185.574219 501.789062 187.699219 505.914062 184.699219 509.289062 C 182.449219 514.539062 176.703125 515.789062 171.953125 517.789062 C 179.074219 522.035156 187.699219 521.660156 195.574219 521.785156 C 195.074219 514.039062 192.699219 506.539062 190.199219 499.292969 C 188.699219 499.042969 185.574219 498.667969 183.949219 498.417969 Z M 161.453125 523.910156 C 171.953125 529.910156 185.324219 526.410156 195.574219 532.535156 C 190.699219 533.660156 184.199219 531.160156 180.699219 535.785156 C 184.699219 543.78125 195.949219 537.910156 202.070312 543.40625 C 198.195312 544.15625 194.324219 544.65625 190.449219 544.90625 C 190.699219 545.65625 191.074219 547.28125 191.324219 548.03125 C 194.574219 548.78125 197.820312 550.03125 201.195312 549.15625 C 205.195312 547.03125 208.070312 543.28125 211.320312 540.15625 C 209.320312 534.285156 205.695312 528.910156 200.195312 525.660156 C 195.449219 523.535156 190.199219 523.910156 185.074219 523.660156 C 177.078125 523.785156 169.328125 523.035156 161.453125 523.910156 Z M 217.816406 544.53125 C 217.941406 545.40625 218.066406 547.03125 218.066406 547.90625 C 229.566406 551.03125 242.1875 548.65625 253.3125 553.15625 C 206.570312 557.03125 159.703125 556.28125 112.839844 554.15625 C 87.21875 552.28125 61.597656 551.28125 35.980469 551.65625 C 18.355469 551.65625 0.984375 555.65625 -16.136719 559.527344 C -16.011719 561.277344 -15.761719 562.902344 -15.636719 564.652344 C -12.136719 565.402344 -8.636719 566.027344 -5.011719 565.527344 C 12.984375 563.277344 30.980469 566.027344 48.976562 567.777344 C 80.59375 569.277344 112.339844 572.277344 143.957031 569.902344 C 173.953125 568.527344 203.945312 571.652344 233.816406 568.777344 C 260.558594 565.902344 287.554688 565.652344 314.425781 566.277344 C 312.550781 557.90625 308.925781 546.65625 299.300781 544.78125 C 272.308594 543.40625 244.9375 541.65625 217.816406 544.53125 Z M 217.816406 544.53125 " fill-opacity="1" fill-rule="nonzero"/></g><path fill="#401201" d="M 482.890625 279.460938 C 489.640625 279.585938 496.765625 279.085938 503.011719 282.332031 C 496.515625 282.707031 489.890625 282.332031 483.390625 282.582031 C 483.140625 281.707031 483.015625 280.207031 482.890625 279.460938 Z M 482.890625 279.460938 " fill-opacity="1" fill-rule="nonzero"/><path fill="#401201" d="M 118.960938 593.523438 C 126.085938 589.898438 134.585938 590.898438 142.332031 590.273438 C 165.203125 590.023438 188.199219 590.398438 211.070312 591.898438 C 223.691406 592.648438 236.191406 590.023438 248.8125 591.648438 C 278.679688 592.523438 308.550781 595.648438 338.167969 599.894531 C 353.792969 601.644531 367.539062 610.394531 383.160156 612.269531 C 389.035156 613.769531 396.035156 612.894531 401.03125 616.894531 C 367.164062 618.019531 333.296875 613.769531 299.425781 613.769531 C 284.554688 613.894531 269.683594 610.894531 255.6875 605.644531 C 247.1875 602.269531 238.1875 601.144531 229.191406 600.644531 C 196.449219 598.023438 163.828125 593.148438 130.835938 594.023438 C 126.960938 594.023438 122.960938 594.273438 118.960938 593.523438 Z M 118.960938 593.523438 " fill-opacity="1" fill-rule="nonzero"/><path fill="#401201" d="M 485.140625 597.523438 C 498.761719 596.773438 512.261719 593.148438 526.007812 593.898438 C 522.757812 597.898438 517.132812 596.773438 512.636719 597.898438 C 501.011719 599.144531 489.765625 602.269531 478.015625 602.519531 C 462.519531 602.894531 446.898438 602.519531 431.652344 599.394531 C 449.523438 598.398438 467.394531 600.019531 485.140625 597.523438 Z M 485.140625 597.523438 " fill-opacity="1" fill-rule="nonzero"/></svg>